<svg xmlns="http://www.w3.org/2000/svg" version="1.1" xmlns:xlink="http://www.w3.org/1999/xlink" xmlns:svgjs="http://svgjs.dev/svgjs" width="1500" height="1500" viewBox="0 0 1500 1500"><rect width="1500" height="1500" fill="#ffffff"></rect><g transform="matrix(0.6666666666666666,0,0,0.6666666666666666,249.22979806383051,349.65775978407555)"><svg viewBox="0 0 308 247" data-background-color="#ffffff" preserveAspectRatio="xMidYMid meet" height="1202" width="1500" xmlns="http://www.w3.org/2000/svg" xmlns:xlink="http://www.w3.org/1999/xlink"><g id="tight-bounds" transform="matrix(1,0,0,1,0.23722219634021258,-0.09999999999999432)"><svg viewBox="0 0 307.5255556073196 247.2" height="247.2" width="307.5255556073196"><g><svg viewBox="0 0 395.52 317.93307000750883" height="247.2" width="307.5255556073196"><g transform="matrix(1,0,0,1,0,193.21027685205456)"><svg viewBox="0 0 395.52 124.72279315545427" height="124.72279315545427" width="395.52"><g id="textblocktransform"><svg viewBox="0 0 395.52 124.72279315545427" height="124.72279315545427" width="395.52" id="textblock"><g><svg viewBox="0 0 395.52 88.29096016205267" height="88.29096016205267" width="395.52"><g transform="matrix(1,0,0,1,0,0)"><svg width="395.52" viewBox="3.78 -31.95 185.1 41.33" height="88.29096016205267" data-palette-color="#1e55b3"><path d="M15.65-10.63L15.65-10.63 6.48-10.63 6.48-14.08 15.55-14.08Q18.82-14.08 20.3-15.71 21.78-17.35 21.78-20.23L21.78-20.23 21.78-22.4Q21.78-25.33 20.31-26.93 18.85-28.53 15.6-28.53L15.6-28.53 6.45-28.53 6.45-31.95 15.68-31.95Q21.03-31.95 23.46-29.44 25.9-26.93 25.9-22.53L25.9-22.53 25.9-20.13Q25.9-15.68 23.44-13.15 20.98-10.63 15.65-10.63ZM7.88-11.2L7.88 0 3.78 0 3.78-31.95 7.85-31.95 7.85-13.05 7.88-11.2ZM49.82-15.8L49.82 0 45.8 0 45.97-5.93 45.82-6.55 45.82-14.33 45.85-15.75Q45.85-18.73 44.34-20.15 42.82-21.58 39.55-21.58L39.55-21.58Q36.92-21.58 34.73-20.83 32.55-20.08 30.85-19.07L30.85-19.07 31.22-22.53Q32.17-23.1 33.48-23.66 34.8-24.23 36.48-24.6 38.17-24.98 40.2-24.98L40.2-24.98Q42.82-24.98 44.66-24.34 46.5-23.7 47.64-22.5 48.77-21.3 49.3-19.6 49.82-17.9 49.82-15.8L49.82-15.8ZM37.4 0.53L37.4 0.53Q33.77 0.53 31.84-1.24 29.9-3 29.9-6.28L29.9-6.28 29.9-7Q29.9-10.38 31.98-12.04 34.07-13.7 38.62-14.35L38.62-14.35 46.35-15.45 46.57-12.5 39.12-11.43Q36.32-11.03 35.12-10.06 33.92-9.1 33.92-7.23L33.92-7.23 33.92-6.83Q33.92-4.9 35.11-3.88 36.3-2.85 38.67-2.85L38.67-2.85Q40.77-2.85 42.27-3.58 43.77-4.3 44.7-5.53 45.62-6.75 45.95-8.25L45.95-8.25 46.57-5.5 45.8-5.5Q45.45-3.9 44.48-2.53 43.52-1.15 41.8-0.31 40.07 0.53 37.4 0.53ZM59.87-14.93L59.87-14.93 58.95-18.05 59.95-18.1Q60.75-21.2 62.7-22.99 64.65-24.78 67.87-24.78L67.87-24.78Q68.67-24.78 69.31-24.65 69.95-24.53 70.45-24.35L70.45-24.35 70.7-20.43Q70.07-20.63 69.31-20.75 68.55-20.88 67.62-20.88L67.62-20.88Q64.87-20.88 62.83-19.35 60.8-17.82 59.87-14.93ZM60.07-16.9L60.07 0 56.02 0 56.02-24.4 59.97-24.4 59.77-17.2 60.07-16.9ZM83.54 0.5L83.54 0.5Q80.72 0.5 78.99-0.35 77.27-1.2 76.49-2.93 75.72-4.65 75.72-7.23L75.72-7.23 75.72-22.63 79.72-22.63 79.72-7.7Q79.72-5.3 80.82-4.16 81.92-3.03 84.52-3.03L84.52-3.03Q85.99-3.03 87.36-3.35 88.72-3.68 89.92-4.28L89.92-4.28 89.54-0.8Q88.37-0.2 86.79 0.15 85.22 0.5 83.54 0.5ZM89.67-24.05L89.29-20.8 71.72-20.8 71.72-24.05 89.67-24.05ZM79.79-31.03L79.62-23.65 75.74-23.65 75.72-30.5 79.79-31.03ZM112.94-15.8L112.94 0 108.92 0 109.09-5.93 108.94-6.55 108.94-14.33 108.97-15.75Q108.97-18.73 107.45-20.15 105.94-21.58 102.67-21.58L102.67-21.58Q100.04-21.58 97.85-20.83 95.67-20.08 93.97-19.07L93.97-19.07 94.34-22.53Q95.29-23.1 96.6-23.66 97.92-24.23 99.6-24.6 101.29-24.98 103.32-24.98L103.32-24.98Q105.94-24.98 107.78-24.34 109.62-23.7 110.75-22.5 111.89-21.3 112.42-19.6 112.94-17.9 112.94-15.8L112.94-15.8ZM100.52 0.53L100.52 0.53Q96.89 0.53 94.95-1.24 93.02-3 93.02-6.28L93.02-6.28 93.02-7Q93.02-10.38 95.1-12.04 97.19-13.7 101.74-14.35L101.74-14.35 109.47-15.45 109.69-12.5 102.24-11.43Q99.44-11.03 98.24-10.06 97.04-9.1 97.04-7.23L97.04-7.23 97.04-6.83Q97.04-4.9 98.23-3.88 99.42-2.85 101.79-2.85L101.79-2.85Q103.89-2.85 105.39-3.58 106.89-4.3 107.82-5.53 108.74-6.75 109.07-8.25L109.07-8.25 109.69-5.5 108.92-5.5Q108.57-3.9 107.6-2.53 106.64-1.15 104.92-0.31 103.19 0.53 100.52 0.53ZM128.64-7.3L128.64-7.3Q123.66-7.3 121-9.47 118.34-11.65 118.34-15.7L118.34-15.7 118.34-16.32Q118.34-18.85 119.38-20.73 120.41-22.6 122.69-23.66 124.96-24.73 128.64-24.83L128.64-24.83 141.09-25.23 141.09-22.03 133.74-22.28 133.71-22.1Q135.44-21.75 136.54-20.9 137.64-20.05 138.18-18.78 138.71-17.5 138.71-15.8L138.71-15.8 138.71-15.25Q138.71-11.38 136.16-9.34 133.61-7.3 128.64-7.3ZM128.46 6.15L128.46 6.15 129.04 6.15Q131.29 6.15 132.9 5.81 134.51 5.48 135.39 4.75 136.26 4.03 136.26 2.83L136.26 2.83 136.26 2.73Q136.26 1.33 135.25 0.59 134.24-0.15 131.79-0.38L131.79-0.38 124.89-1 126.04-1.05Q124.64-0.85 123.58-0.4 122.51 0.05 121.91 0.79 121.31 1.53 121.31 2.63L121.31 2.63 121.31 2.68Q121.31 3.95 122.19 4.73 123.06 5.5 124.66 5.83 126.26 6.15 128.46 6.15ZM128.96 9.38L128.96 9.38 128.24 9.38Q124.94 9.38 122.55 8.81 120.16 8.25 118.85 6.99 117.54 5.73 117.54 3.6L117.54 3.6 117.54 3.5Q117.54 2 118.25 1 118.96 0 120.18-0.58 121.39-1.15 122.89-1.35L122.89-1.35 122.86-1.5Q120.81-1.85 119.84-2.71 118.86-3.58 118.86-4.95L118.86-4.95 118.86-4.98Q118.86-5.93 119.3-6.6 119.74-7.28 120.63-7.68 121.51-8.08 122.89-8.18L122.89-8.18 122.89-8.68 127.54-7.5 125.64-7.55Q123.94-7.53 123.29-7.14 122.64-6.75 122.64-5.98L122.64-5.98 122.64-5.95Q122.64-5.13 123.56-4.7 124.49-4.28 126.71-4.03L126.71-4.03 132.64-3.43Q136.51-3.03 138.29-1.56 140.06-0.1 140.06 2.75L140.06 2.75 140.06 2.88Q140.06 5.15 138.71 6.6 137.36 8.05 134.89 8.71 132.41 9.38 128.96 9.38ZM128.59-10.3L128.59-10.3Q130.69-10.3 132.08-10.91 133.46-11.53 134.18-12.76 134.89-14 134.89-15.8L134.89-15.8 134.89-16.4Q134.89-18.15 134.2-19.38 133.51-20.6 132.14-21.24 130.76-21.88 128.69-21.88L128.69-21.88 128.54-21.88Q126.29-21.88 124.88-21.19 123.46-20.5 122.83-19.26 122.19-18.03 122.19-16.38L122.19-16.38 122.19-15.8Q122.19-14 122.9-12.78 123.61-11.55 125.04-10.93 126.46-10.3 128.59-10.3ZM155.01 0.55L155.01 0.55Q149.44 0.55 146.61-2.18 143.79-4.9 143.79-9.98L143.79-9.98 143.79-14.33Q143.79-19.48 146.41-22.26 149.04-25.05 154.09-25.05L154.09-25.05Q157.49-25.05 159.76-23.79 162.04-22.53 163.19-20.2 164.34-17.88 164.34-14.65L164.34-14.65 164.34-13.75Q164.34-12.95 164.27-12.15 164.21-11.35 164.11-10.58L164.11-10.58 160.39-10.58Q160.44-11.78 160.45-12.85 160.46-13.93 160.46-14.83L160.46-14.83Q160.46-17.05 159.75-18.59 159.04-20.13 157.62-20.94 156.21-21.75 154.09-21.75L154.09-21.75Q150.94-21.75 149.36-19.93 147.79-18.1 147.79-14.7L147.79-14.7 147.79-12.38 147.81-11.88 147.81-9.55Q147.81-8.03 148.26-6.8 148.71-5.58 149.67-4.69 150.64-3.8 152.12-3.34 153.61-2.88 155.66-2.88L155.66-2.88Q158.04-2.88 160.09-3.5 162.14-4.13 163.94-5.2L163.94-5.2 163.56-1.7Q161.94-0.68 159.79-0.06 157.64 0.55 155.01 0.55ZM163.26-13.63L163.26-10.58 145.91-10.58 145.91-13.63 163.26-13.63ZM177.21-26.08L180.71-26.08 180.71-5.03 177.21-5.03 177.21-26.08ZM188.88-17.2L188.88-13.9 169.03-13.9 169.03-17.2 188.88-17.2Z" opacity="1" transform="matrix(1,0,0,1,0,0)" fill="#000000" class="wordmark-text-0" data-fill-palette-color="primary" id="text-0"></path></svg></g></svg></g><g transform="matrix(1,0,0,1,75.54432,109.13433687326942)"><svg viewBox="0 0 244.43135999999998 15.588456282184849" height="15.588456282184849" width="244.43135999999998"><g transform="matrix(1,0,0,1,0,0)"><svg width="244.43135999999998" viewBox="2.13 -33.48 671.82 42.86" height="15.588456282184849" data-palette-color="#ff585f"><path d="M12.68 0.58L12.68 0.58Q10.38 0.58 8.46 0.2 6.55-0.18 5.05-0.73 3.55-1.28 2.55-1.83L2.55-1.83 2.13-5.95Q4.05-4.8 6.66-3.94 9.28-3.08 12.35-3.08L12.35-3.08Q16.05-3.08 17.82-4.39 19.6-5.7 19.6-8.33L19.6-8.33 19.6-8.72Q19.6-10.45 18.9-11.55 18.2-12.65 16.54-13.4 14.88-14.15 12.03-14.8L12.03-14.8Q8.43-15.65 6.26-16.81 4.1-17.98 3.14-19.73 2.18-21.48 2.18-24.08L2.18-24.08 2.18-24.3Q2.18-28.23 4.75-30.36 7.33-32.5 12.55-32.5L12.55-32.5Q15.98-32.5 18.39-31.8 20.8-31.1 22.33-30.25L22.33-30.25 22.7-26.45Q20.93-27.5 18.56-28.24 16.2-28.98 13.15-28.98L13.15-28.98Q10.73-28.98 9.22-28.4 7.73-27.83 7.05-26.75 6.38-25.68 6.38-24.15L6.38-24.15 6.38-24.05Q6.38-22.5 7.04-21.4 7.7-20.3 9.36-19.5 11.03-18.7 14.1-17.95L14.1-17.95Q17.63-17.13 19.75-16.05 21.88-14.98 22.84-13.25 23.8-11.53 23.8-8.75L23.8-8.75 23.8-8.22Q23.8-3.9 21.01-1.66 18.23 0.58 12.68 0.58ZM49.72-15.63L49.72 0 45.67 0 45.67-15.18Q45.67-17.15 45.14-18.57 44.6-20 43.39-20.79 42.17-21.58 40.07-21.58L40.07-21.58Q38.15-21.58 36.75-20.85 35.35-20.13 34.48-18.89 33.62-17.65 33.27-16.07L33.27-16.07 32.37-18.95 33.42-18.95Q33.8-20.6 34.8-21.96 35.8-23.33 37.48-24.14 39.17-24.95 41.6-24.95L41.6-24.95Q44.5-24.95 46.28-23.85 48.07-22.75 48.9-20.69 49.72-18.63 49.72-15.63L49.72-15.63ZM33.4-17.85L33.4 0 29.35 0 29.35-33.13 33.37-33.13 33.37-25.18 33.25-18.18 33.4-17.85ZM74.5-15.8L74.5 0 70.47 0 70.65-5.93 70.5-6.55 70.5-14.33 70.52-15.75Q70.52-18.73 69.01-20.15 67.5-21.58 64.22-21.58L64.22-21.58Q61.6-21.58 59.41-20.83 57.22-20.08 55.52-19.07L55.52-19.07 55.9-22.53Q56.85-23.1 58.16-23.66 59.47-24.23 61.16-24.6 62.85-24.98 64.87-24.98L64.87-24.98Q67.5-24.98 69.33-24.34 71.17-23.7 72.31-22.5 73.45-21.3 73.97-19.6 74.5-17.9 74.5-15.8L74.5-15.8ZM62.07 0.53L62.07 0.53Q58.45 0.53 56.51-1.24 54.57-3 54.57-6.28L54.57-6.28 54.57-7Q54.57-10.38 56.66-12.04 58.75-13.7 63.3-14.35L63.3-14.35 71.02-15.45 71.25-12.5 63.8-11.43Q61-11.03 59.8-10.06 58.6-9.1 58.6-7.23L58.6-7.23 58.6-6.83Q58.6-4.9 59.78-3.88 60.97-2.85 63.35-2.85L63.35-2.85Q65.45-2.85 66.95-3.58 68.45-4.3 69.37-5.53 70.3-6.75 70.62-8.25L70.62-8.25 71.25-5.5 70.47-5.5Q70.12-3.9 69.16-2.53 68.2-1.15 66.47-0.31 64.75 0.53 62.07 0.53ZM84.54-14.93L84.54-14.93 83.62-18.05 84.62-18.1Q85.42-21.2 87.37-22.99 89.32-24.78 92.54-24.78L92.54-24.78Q93.34-24.78 93.98-24.65 94.62-24.53 95.12-24.35L95.12-24.35 95.37-20.43Q94.74-20.63 93.98-20.75 93.22-20.88 92.29-20.88L92.29-20.88Q89.54-20.88 87.51-19.35 85.47-17.82 84.54-14.93ZM84.74-16.9L84.74 0 80.69 0 80.69-24.4 84.64-24.4 84.44-17.2 84.74-16.9ZM108.94 0.55L108.94 0.55Q103.37 0.55 100.54-2.18 97.72-4.9 97.72-9.98L97.72-9.98 97.72-14.33Q97.72-19.48 100.34-22.26 102.97-25.05 108.02-25.05L108.02-25.05Q111.42-25.05 113.69-23.79 115.97-22.53 117.12-20.2 118.27-17.88 118.27-14.65L118.27-14.65 118.27-13.75Q118.27-12.95 118.2-12.15 118.14-11.35 118.04-10.58L118.04-10.58 114.32-10.58Q114.37-11.78 114.38-12.85 114.39-13.93 114.39-14.83L114.39-14.83Q114.39-17.05 113.68-18.59 112.97-20.13 111.55-20.94 110.14-21.75 108.02-21.75L108.02-21.75Q104.87-21.75 103.29-19.93 101.72-18.1 101.72-14.7L101.72-14.7 101.72-12.38 101.74-11.88 101.74-9.55Q101.74-8.03 102.19-6.8 102.64-5.58 103.6-4.69 104.57-3.8 106.05-3.34 107.54-2.88 109.59-2.88L109.59-2.88Q111.97-2.88 114.02-3.5 116.07-4.13 117.87-5.2L117.87-5.2 117.49-1.7Q115.87-0.68 113.72-0.06 111.57 0.55 108.94 0.55ZM117.19-13.63L117.19-10.58 99.84-10.58 99.84-13.63 117.19-13.63ZM147.66-31.28L147.66 0 143.51 0 143.51-31.28 147.66-31.28ZM157.24-31.95L157.24-28.48 133.94-28.48 133.94-31.95 157.24-31.95ZM168.36 0.63L168.36 0.63Q163.11 0.63 160.4-2.21 157.68-5.05 157.68-10.38L157.68-10.38 157.68-14.1Q157.68-19.4 160.41-22.23 163.13-25.05 168.36-25.05L168.36-25.05Q173.61-25.05 176.32-22.23 179.03-19.4 179.03-14.1L179.03-14.1 179.03-10.38Q179.03-5.05 176.32-2.21 173.61 0.63 168.36 0.63ZM168.36-2.68L168.36-2.68Q171.61-2.68 173.3-4.6 174.98-6.53 174.98-10.15L174.98-10.15 174.98-14.33Q174.98-17.93 173.3-19.84 171.61-21.75 168.36-21.75L168.36-21.75Q165.13-21.75 163.43-19.84 161.73-17.93 161.73-14.33L161.73-14.33 161.73-10.15Q161.73-6.53 163.43-4.6 165.13-2.68 168.36-2.68ZM194.13-7.3L194.13-7.3Q189.16-7.3 186.49-9.47 183.83-11.65 183.83-15.7L183.83-15.7 183.83-16.32Q183.83-18.85 184.87-20.73 185.91-22.6 188.18-23.66 190.46-24.73 194.13-24.83L194.13-24.83 206.58-25.23 206.58-22.03 199.23-22.28 199.21-22.1Q200.93-21.75 202.03-20.9 203.13-20.05 203.67-18.78 204.21-17.5 204.21-15.8L204.21-15.8 204.21-15.25Q204.21-11.38 201.66-9.34 199.11-7.3 194.13-7.3ZM193.96 6.15L193.96 6.15 194.53 6.15Q196.78 6.15 198.39 5.81 200.01 5.48 200.88 4.75 201.76 4.03 201.76 2.83L201.76 2.83 201.76 2.73Q201.76 1.33 200.74 0.59 199.73-0.15 197.28-0.38L197.28-0.38 190.38-1 191.53-1.05Q190.13-0.85 189.07-0.4 188.01 0.05 187.41 0.79 186.81 1.53 186.81 2.63L186.81 2.63 186.81 2.68Q186.81 3.95 187.68 4.73 188.56 5.5 190.16 5.83 191.76 6.15 193.96 6.15ZM194.46 9.38L194.46 9.38 193.73 9.38Q190.43 9.38 188.04 8.81 185.66 8.25 184.34 6.99 183.03 5.73 183.03 3.6L183.03 3.6 183.03 3.5Q183.03 2 183.74 1 184.46 0 185.67-0.58 186.88-1.15 188.38-1.35L188.38-1.35 188.36-1.5Q186.31-1.85 185.33-2.71 184.36-3.58 184.36-4.95L184.36-4.95 184.36-4.98Q184.36-5.93 184.79-6.6 185.23-7.28 186.12-7.68 187.01-8.08 188.38-8.18L188.38-8.18 188.38-8.68 193.03-7.5 191.13-7.55Q189.43-7.53 188.78-7.14 188.13-6.75 188.13-5.98L188.13-5.98 188.13-5.95Q188.13-5.13 189.06-4.7 189.98-4.28 192.21-4.03L192.21-4.03 198.13-3.43Q202.01-3.03 203.78-1.56 205.56-0.1 205.56 2.75L205.56 2.75 205.56 2.88Q205.56 5.15 204.21 6.6 202.86 8.05 200.38 8.71 197.91 9.38 194.46 9.38ZM194.08-10.3L194.08-10.3Q196.18-10.3 197.57-10.91 198.96-11.53 199.67-12.76 200.38-14 200.38-15.8L200.38-15.8 200.38-16.4Q200.38-18.15 199.69-19.38 199.01-20.6 197.63-21.24 196.26-21.88 194.18-21.88L194.18-21.88 194.03-21.88Q191.78-21.88 190.37-21.19 188.96-20.5 188.32-19.26 187.68-18.03 187.68-16.38L187.68-16.38 187.68-15.8Q187.68-14 188.39-12.78 189.11-11.55 190.53-10.93 191.96-10.3 194.08-10.3ZM220.25 0.55L220.25 0.55Q214.68 0.55 211.85-2.18 209.03-4.9 209.03-9.98L209.03-9.98 209.03-14.33Q209.03-19.48 211.65-22.26 214.28-25.05 219.33-25.05L219.33-25.05Q222.73-25.05 225-23.79 227.28-22.53 228.43-20.2 229.58-17.88 229.58-14.65L229.58-14.65 229.58-13.75Q229.58-12.95 229.52-12.15 229.45-11.35 229.35-10.58L229.35-10.58 225.63-10.58Q225.68-11.78 225.69-12.85 225.7-13.93 225.7-14.83L225.7-14.83Q225.7-17.05 224.99-18.59 224.28-20.13 222.87-20.94 221.45-21.75 219.33-21.75L219.33-21.75Q216.18-21.75 214.6-19.93 213.03-18.1 213.03-14.7L213.03-14.7 213.03-12.38 213.05-11.88 213.05-9.55Q213.05-8.03 213.5-6.8 213.95-5.58 214.92-4.69 215.88-3.8 217.37-3.34 218.85-2.88 220.9-2.88L220.9-2.88Q223.28-2.88 225.33-3.5 227.38-4.13 229.18-5.2L229.18-5.2 228.8-1.7Q227.18-0.68 225.03-0.06 222.88 0.55 220.25 0.55ZM228.5-13.63L228.5-10.58 211.15-10.58 211.15-13.63 228.5-13.63ZM243.9 0.5L243.9 0.5Q241.08 0.5 239.35-0.35 237.63-1.2 236.85-2.93 236.08-4.65 236.08-7.23L236.08-7.23 236.08-22.63 240.08-22.63 240.08-7.7Q240.08-5.3 241.18-4.16 242.28-3.03 244.88-3.03L244.88-3.03Q246.35-3.03 247.71-3.35 249.08-3.68 250.28-4.28L250.28-4.28 249.9-0.8Q248.73-0.2 247.15 0.15 245.58 0.5 243.9 0.5ZM250.03-24.05L249.65-20.8 232.08-20.8 232.08-24.05 250.03-24.05ZM240.15-31.03L239.98-23.65 236.1-23.65 236.08-30.5 240.15-31.03ZM275.17-15.63L275.17 0 271.12 0 271.12-15.18Q271.12-17.15 270.59-18.57 270.05-20 268.84-20.79 267.62-21.58 265.52-21.58L265.52-21.58Q263.6-21.58 262.2-20.85 260.8-20.13 259.94-18.89 259.07-17.65 258.72-16.07L258.72-16.07 257.82-18.95 258.87-18.95Q259.25-20.6 260.25-21.96 261.25-23.33 262.94-24.14 264.62-24.95 267.05-24.95L267.05-24.95Q269.95-24.95 271.74-23.85 273.52-22.75 274.35-20.69 275.17-18.63 275.17-15.63L275.17-15.63ZM258.85-17.85L258.85 0 254.8 0 254.8-33.13 258.82-33.13 258.82-25.18 258.7-18.18 258.85-17.85ZM291.7 0.55L291.7 0.55Q286.12 0.55 283.3-2.18 280.47-4.9 280.47-9.98L280.47-9.98 280.47-14.33Q280.47-19.48 283.1-22.26 285.72-25.05 290.77-25.05L290.77-25.05Q294.17-25.05 296.45-23.79 298.72-22.53 299.87-20.2 301.02-17.88 301.02-14.65L301.02-14.65 301.02-13.75Q301.02-12.95 300.96-12.15 300.9-11.35 300.8-10.58L300.8-10.58 297.07-10.58Q297.12-11.78 297.13-12.85 297.15-13.93 297.15-14.83L297.15-14.83Q297.15-17.05 296.43-18.59 295.72-20.13 294.31-20.94 292.9-21.75 290.77-21.75L290.77-21.75Q287.62-21.75 286.05-19.93 284.47-18.1 284.47-14.7L284.47-14.7 284.47-12.38 284.5-11.88 284.5-9.55Q284.5-8.03 284.95-6.8 285.4-5.58 286.36-4.69 287.32-3.8 288.81-3.34 290.3-2.88 292.35-2.88L292.35-2.88Q294.72-2.88 296.77-3.5 298.82-4.13 300.62-5.2L300.62-5.2 300.25-1.7Q298.62-0.68 296.47-0.06 294.32 0.55 291.7 0.55ZM299.95-13.63L299.95-10.58 282.6-10.58 282.6-13.63 299.95-13.63ZM310.27-14.93L310.27-14.93 309.34-18.05 310.34-18.1Q311.14-21.2 313.09-22.99 315.04-24.78 318.27-24.78L318.27-24.78Q319.07-24.78 319.71-24.65 320.34-24.53 320.84-24.35L320.84-24.35 321.09-20.43Q320.47-20.63 319.71-20.75 318.94-20.88 318.02-20.88L318.02-20.88Q315.27-20.88 313.23-19.35 311.19-17.82 310.27-14.93ZM310.47-16.9L310.47 0 306.42 0 306.42-24.4 310.37-24.4 310.17-17.2 310.47-16.9ZM323.24-6.78L323.24-6.78 327.14-6.78Q327.22-6.3 327.3-5.54 327.39-4.78 327.39-3.9L327.39-3.9Q327.39-0.9 326.55 1.65 325.72 4.2 323.69 6.58L323.69 6.58 320.89 5.68Q322.19 3.6 322.81 1.33 323.44-0.95 323.44-3.73L323.44-3.73Q323.44-4.55 323.39-5.29 323.34-6.03 323.24-6.78ZM357.11-31.28L357.11 0 352.96 0 352.96-31.28 357.11-31.28ZM366.69-31.95L366.69-28.48 343.38-28.48 343.38-31.95 366.69-31.95ZM391.98-15.63L391.98 0 387.93 0 387.93-15.18Q387.93-17.15 387.39-18.57 386.86-20 385.64-20.79 384.43-21.58 382.33-21.58L382.33-21.58Q380.41-21.58 379.01-20.85 377.61-20.13 376.75-18.89 375.88-17.65 375.53-16.07L375.53-16.07 374.63-18.95 375.68-18.95Q376.06-20.6 377.06-21.96 378.06-23.33 379.75-24.14 381.43-24.95 383.86-24.95L383.86-24.95Q386.76-24.95 388.55-23.85 390.33-22.75 391.16-20.69 391.98-18.63 391.98-15.63L391.98-15.63ZM375.66-17.85L375.66 0 371.61 0 371.61-33.13 375.63-33.13 375.63-25.18 375.51-18.18 375.66-17.85ZM402.1-14.93L402.1-14.93 401.18-18.05 402.18-18.1Q402.98-21.2 404.93-22.99 406.88-24.78 410.1-24.78L410.1-24.78Q410.9-24.78 411.54-24.65 412.18-24.53 412.68-24.35L412.68-24.35 412.93-20.43Q412.31-20.63 411.54-20.75 410.78-20.88 409.85-20.88L409.85-20.88Q407.1-20.88 405.07-19.35 403.03-17.82 402.1-14.93ZM402.31-16.9L402.31 0 398.25 0 398.25-24.4 402.2-24.4 402-17.2 402.31-16.9ZM421.03-24.4L421.03 0 416.98 0 416.98-24.4 421.03-24.4ZM419-28.4L419-28.4Q417.75-28.4 417.14-29.06 416.53-29.73 416.53-30.88L416.53-30.88 416.53-31Q416.53-32.18 417.14-32.83 417.75-33.48 419-33.48L419-33.48Q420.25-33.48 420.88-32.83 421.5-32.18 421.5-31L421.5-31 421.5-30.88Q421.5-29.7 420.88-29.05 420.25-28.4 419-28.4ZM429.67-24.4L436.42-2.78 437.02-2.78 443.77-24.4 447.97-24.4 440.05 0 433.4 0 425.47-24.4 429.67-24.4ZM461.8 0.55L461.8 0.55Q456.22 0.55 453.4-2.18 450.57-4.9 450.57-9.98L450.57-9.98 450.57-14.33Q450.57-19.48 453.2-22.26 455.82-25.05 460.87-25.05L460.87-25.05Q464.27-25.05 466.55-23.79 468.82-22.53 469.97-20.2 471.12-17.88 471.12-14.65L471.12-14.65 471.12-13.75Q471.12-12.95 471.06-12.15 471-11.35 470.9-10.58L470.9-10.58 467.17-10.58Q467.22-11.78 467.23-12.85 467.25-13.93 467.25-14.83L467.25-14.83Q467.25-17.05 466.53-18.59 465.82-20.13 464.41-20.94 463-21.75 460.87-21.75L460.87-21.75Q457.72-21.75 456.15-19.93 454.57-18.1 454.57-14.7L454.57-14.7 454.57-12.38 454.6-11.88 454.6-9.55Q454.6-8.03 455.05-6.8 455.5-5.58 456.46-4.69 457.42-3.8 458.91-3.34 460.4-2.88 462.45-2.88L462.45-2.88Q464.82-2.88 466.87-3.5 468.92-4.13 470.72-5.2L470.72-5.2 470.35-1.7Q468.72-0.68 466.57-0.06 464.42 0.55 461.8 0.55ZM470.05-13.63L470.05-10.58 452.7-10.58 452.7-13.63 470.05-13.63ZM500.52-31.28L500.52 0 496.37 0 496.37-31.28 500.52-31.28ZM510.09-31.95L510.09-28.48 486.79-28.48 486.79-31.95 510.09-31.95ZM521.21 0.63L521.21 0.63Q515.96 0.63 513.25-2.21 510.54-5.05 510.54-10.38L510.54-10.38 510.54-14.1Q510.54-19.4 513.26-22.23 515.99-25.05 521.21-25.05L521.21-25.05Q526.46-25.05 529.18-22.23 531.89-19.4 531.89-14.1L531.89-14.1 531.89-10.38Q531.89-5.05 529.18-2.21 526.46 0.63 521.21 0.63ZM521.21-2.68L521.21-2.68Q524.46-2.68 526.15-4.6 527.84-6.53 527.84-10.15L527.84-10.15 527.84-14.33Q527.84-17.93 526.15-19.84 524.46-21.75 521.21-21.75L521.21-21.75Q517.99-21.75 516.29-19.84 514.59-17.93 514.59-14.33L514.59-14.33 514.59-10.15Q514.59-6.53 516.29-4.6 517.99-2.68 521.21-2.68ZM546.99-7.3L546.99-7.3Q542.01-7.3 539.35-9.47 536.69-11.65 536.69-15.7L536.69-15.7 536.69-16.32Q536.69-18.85 537.72-20.73 538.76-22.6 541.04-23.66 543.31-24.73 546.99-24.83L546.99-24.83 559.44-25.23 559.44-22.03 552.09-22.28 552.06-22.1Q553.79-21.75 554.89-20.9 555.99-20.05 556.52-18.78 557.06-17.5 557.06-15.8L557.06-15.8 557.06-15.25Q557.06-11.38 554.51-9.34 551.96-7.3 546.99-7.3ZM546.81 6.15L546.81 6.15 547.39 6.15Q549.64 6.15 551.25 5.81 552.86 5.48 553.74 4.75 554.61 4.03 554.61 2.83L554.61 2.83 554.61 2.73Q554.61 1.33 553.6 0.59 552.59-0.15 550.14-0.38L550.14-0.38 543.24-1 544.39-1.05Q542.99-0.85 541.92-0.4 540.86 0.05 540.26 0.79 539.66 1.53 539.66 2.63L539.66 2.63 539.66 2.68Q539.66 3.95 540.54 4.73 541.41 5.5 543.01 5.83 544.61 6.15 546.81 6.15ZM547.31 9.38L547.31 9.38 546.59 9.38Q543.29 9.38 540.9 8.81 538.51 8.25 537.2 6.99 535.89 5.73 535.89 3.6L535.89 3.6 535.89 3.5Q535.89 2 536.6 1 537.31 0 538.52-0.58 539.74-1.15 541.24-1.35L541.24-1.35 541.21-1.5Q539.16-1.85 538.19-2.71 537.21-3.58 537.21-4.95L537.21-4.95 537.21-4.98Q537.21-5.93 537.65-6.6 538.09-7.28 538.97-7.68 539.86-8.08 541.24-8.18L541.24-8.18 541.24-8.68 545.89-7.5 543.99-7.55Q542.29-7.53 541.64-7.14 540.99-6.75 540.99-5.98L540.99-5.98 540.99-5.95Q540.99-5.13 541.91-4.7 542.84-4.28 545.06-4.03L545.06-4.03 550.99-3.43Q554.86-3.03 556.64-1.56 558.41-0.1 558.41 2.75L558.41 2.75 558.41 2.88Q558.41 5.15 557.06 6.6 555.71 8.05 553.24 8.71 550.76 9.38 547.31 9.38ZM546.94-10.3L546.94-10.3Q549.04-10.3 550.42-10.91 551.81-11.53 552.52-12.76 553.24-14 553.24-15.8L553.24-15.8 553.24-16.4Q553.24-18.15 552.55-19.38 551.86-20.6 550.49-21.24 549.11-21.88 547.04-21.88L547.04-21.88 546.89-21.88Q544.64-21.88 543.22-21.19 541.81-20.5 541.17-19.26 540.54-18.03 540.54-16.38L540.54-16.38 540.54-15.8Q540.54-14 541.25-12.78 541.96-11.55 543.39-10.93 544.81-10.3 546.94-10.3ZM573.11 0.55L573.11 0.55Q567.53 0.55 564.71-2.18 561.88-4.9 561.88-9.98L561.88-9.98 561.88-14.33Q561.88-19.48 564.51-22.26 567.13-25.05 572.18-25.05L572.18-25.05Q575.58-25.05 577.86-23.79 580.13-22.53 581.28-20.2 582.43-17.88 582.43-14.65L582.43-14.65 582.43-13.75Q582.43-12.95 582.37-12.15 582.31-11.35 582.21-10.58L582.21-10.58 578.48-10.58Q578.53-11.78 578.55-12.85 578.56-13.93 578.56-14.83L578.56-14.83Q578.56-17.05 577.85-18.59 577.13-20.13 575.72-20.94 574.31-21.75 572.18-21.75L572.18-21.75Q569.03-21.75 567.46-19.93 565.88-18.1 565.88-14.7L565.88-14.7 565.88-12.38 565.91-11.88 565.91-9.55Q565.91-8.03 566.36-6.8 566.81-5.58 567.77-4.69 568.73-3.8 570.22-3.34 571.71-2.88 573.76-2.88L573.76-2.88Q576.13-2.88 578.18-3.5 580.23-4.13 582.03-5.2L582.03-5.2 581.66-1.7Q580.03-0.68 577.88-0.06 575.73 0.55 573.11 0.55ZM581.36-13.63L581.36-10.58 564.01-10.58 564.01-13.63 581.36-13.63ZM596.76 0.5L596.76 0.5Q593.93 0.5 592.21-0.35 590.48-1.2 589.71-2.93 588.93-4.65 588.93-7.23L588.93-7.23 588.93-22.63 592.93-22.63 592.93-7.7Q592.93-5.3 594.03-4.16 595.13-3.03 597.73-3.03L597.73-3.03Q599.21-3.03 600.57-3.35 601.93-3.68 603.13-4.28L603.13-4.28 602.76-0.8Q601.58-0.2 600.01 0.15 598.43 0.5 596.76 0.5ZM602.88-24.05L602.51-20.8 584.93-20.8 584.93-24.05 602.88-24.05ZM593.01-31.03L592.83-23.65 588.96-23.65 588.93-30.5 593.01-31.03ZM628.03-15.63L628.03 0 623.98 0 623.98-15.18Q623.98-17.15 623.44-18.57 622.9-20 621.69-20.79 620.48-21.58 618.38-21.58L618.38-21.58Q616.45-21.58 615.05-20.85 613.65-20.13 612.79-18.89 611.93-17.65 611.58-16.07L611.58-16.07 610.68-18.95 611.73-18.95Q612.1-20.6 613.1-21.96 614.1-23.33 615.79-24.14 617.48-24.95 619.9-24.95L619.9-24.95Q622.8-24.95 624.59-23.85 626.38-22.75 627.2-20.69 628.03-18.63 628.03-15.63L628.03-15.63ZM611.7-17.85L611.7 0 607.65 0 607.65-33.13 611.68-33.13 611.68-25.18 611.55-18.18 611.7-17.85ZM644.55 0.55L644.55 0.55Q638.98 0.55 636.15-2.18 633.33-4.9 633.33-9.98L633.33-9.98 633.33-14.33Q633.33-19.48 635.95-22.26 638.58-25.05 643.63-25.05L643.63-25.05Q647.03-25.05 649.3-23.79 651.58-22.53 652.73-20.2 653.88-17.88 653.88-14.65L653.88-14.65 653.88-13.75Q653.88-12.95 653.81-12.15 653.75-11.35 653.65-10.58L653.65-10.58 649.93-10.58Q649.98-11.78 649.99-12.85 650-13.93 650-14.83L650-14.83Q650-17.05 649.29-18.59 648.58-20.13 647.16-20.94 645.75-21.75 643.63-21.75L643.63-21.75Q640.48-21.75 638.9-19.93 637.33-18.1 637.33-14.7L637.33-14.7 637.33-12.38 637.35-11.88 637.35-9.55Q637.35-8.03 637.8-6.8 638.25-5.58 639.21-4.69 640.18-3.8 641.66-3.34 643.15-2.88 645.2-2.88L645.2-2.88Q647.58-2.88 649.63-3.5 651.68-4.13 653.48-5.2L653.48-5.2 653.1-1.7Q651.48-0.68 649.33-0.06 647.18 0.55 644.55 0.55ZM652.8-13.63L652.8-10.58 635.45-10.58 635.45-13.63 652.8-13.63ZM663.12-14.93L663.12-14.93 662.2-18.05 663.2-18.1Q664-21.2 665.95-22.99 667.9-24.78 671.12-24.78L671.12-24.78Q671.92-24.78 672.56-24.65 673.2-24.53 673.7-24.35L673.7-24.35 673.95-20.43Q673.32-20.63 672.56-20.75 671.8-20.88 670.87-20.88L670.87-20.88Q668.12-20.88 666.09-19.35 664.05-17.82 663.12-14.93ZM663.32-16.9L663.32 0 659.27 0 659.27-24.4 663.22-24.4 663.02-17.2 663.32-16.9Z" opacity="1" transform="matrix(1,0,0,1,0,0)" fill="#000000" class="slogan-text-1" data-fill-palette-color="secondary" id="text-1"></path></svg></g></svg></g></svg></g></svg></g><g transform="matrix(1,0,0,1,103.57838200232686,0)"><svg viewBox="0 0 188.36323599534626 172.36690014083783" height="172.36690014083783" width="188.36323599534626"><g><svg xmlns="http://www.w3.org/2000/svg" xmlns:xlink="http://www.w3.org/1999/xlink" version="1.1" x="8" y="0" viewBox="2.881 0 94.08099999999999 94.083" enable-background="new 0 0 100 94.165" xml:space="preserve" width="172.36323599534626" height="172.36690014083783" class="icon-icon-0" data-fill-palette-color="accent" id="icon-0"><path d="M49.921 9.134c10.124 0 19.643 3.943 26.803 11.102 7.16 7.16 11.102 16.679 11.102 26.805 0 10.125-3.942 19.645-11.102 26.804-7.16 7.159-16.68 11.102-26.803 11.102-10.125 0-19.644-3.942-26.803-11.102-7.16-7.159-11.103-16.679-11.103-26.804 0-10.126 3.943-19.646 11.103-26.805C30.278 13.077 39.796 9.134 49.921 9.134M49.921 0C23.942 0 2.881 21.061 2.881 47.042c0 25.979 21.061 47.041 47.041 47.041 25.979 0 47.04-21.062 47.04-47.041C96.961 21.061 75.9 0 49.921 0L49.921 0zM62.636 53.896c-2.7 0-5.128 1.164-6.808 3.017l-16.445-8.12c0.098-0.535 0.151-1.086 0.151-1.65 0-0.113-0.005-0.225-0.009-0.339l17.012-8.936c1.623 1.442 3.758 2.318 6.099 2.318 5.076 0 9.19-4.115 9.19-9.19 0-5.077-4.114-9.191-9.19-9.191s-9.19 4.114-9.19 9.191c0 0.378 0.025 0.751 0.07 1.119l-16.529 8.682c-1.673-1.752-4.03-2.845-6.644-2.845-5.076 0-9.191 4.116-9.191 9.191 0 5.076 4.115 9.19 9.191 9.19 2.138 0 4.104-0.731 5.665-1.955l17.44 8.61c-0.001 0.033-0.003 0.066-0.003 0.1 0 5.076 4.114 9.191 9.19 9.191s9.19-4.116 9.19-9.191C71.826 58.01 67.712 53.896 62.636 53.896z" fill="#000000" data-fill-palette-color="accent"></path></svg></g></svg></g><g><rect width="59.58115980598666" height="7.962169903684797" y="163.40473023715302" x="291.9416179976731" fill="#000000" data-fill-palette-color="accent"></rect><rect width="59.58115980598666" height="7.962169903684797" y="163.40473023715302" x="43.9972221963402" fill="#000000" data-fill-palette-color="accent"></rect><rect width="59.58115980598666" height="7.962169903684797" y="147.48039042978343" x="291.9416179976731" fill="#000000" data-fill-palette-color="accent"></rect><rect width="59.58115980598666" height="7.962169903684797" y="147.48039042978343" x="43.9972221963402" fill="#000000" data-fill-palette-color="accent"></rect></g></svg></g><defs></defs></svg><rect width="307.5255556073196" height="247.2" fill="none" stroke="none" visibility="hidden"></rect></g></svg></g></svg>